<?xml version="1.0" standalone="no"?><!DOCTYPE svg PUBLIC "-//W3C//DTD SVG 1.1//EN" "http://www.w3.org/Graphics/SVG/1.1/DTD/svg11.dtd"><svg t="1582529616261" class="icon" viewBox="0 0 1024 1024" version="1.1" xmlns="http://www.w3.org/2000/svg" p-id="2877" xmlns:xlink="http://www.w3.org/1999/xlink" width="200" height="200"><defs><style type="text/css"></style></defs><path d="M512.035 1024c101.956177-34.506721 197.448405-100.584188 266.637846-196.592412 54.52256-75.55339 98.217207-169.562631 129.805952-279.704741 53.23957-185.570501 53.924564-350.891166 53.924564-357.85211 0.105999-15.791872-11.11491-28.893767-26.079789-30.446754-2.355981-0.204998-241.202052-26.285788-407.225711-153.57176a27.809775 27.809775 0 0 0-34.055725 0C329.909471 132.387201 90.179407 159.193984 87.811426 159.398983c-14.964879 1.458988-26.179789 14.653882-26.179789 30.445754 0 6.960944 0.591995 172.275609 53.930565 357.84711 31.594745 109.924112 75.183393 204.063352 129.805951 279.709741 69.189441 95.909225 164.810669 162.091691 266.667847 196.598412m391.819835-807.243481l-0.105999 1.664987c-2.847977 60.376512-13.189893 181.211537-50.585591 311.621483-65.64347 228.678153-180.197545 374.152978-340.51425 432.344509l-0.590995 0.204998-0.603996-0.204998C351.642295 904.307967 237.182219 759.355137 171.350751 531.483978c-39.164684-135.588905-48.616607-264.117867-50.971588-313.162471l-0.105999-1.657987 1.476988-0.209998c69.476439-10.699914 246.522009-46.542624 389.218856-147.958805l0.884993-0.732994 0.989992 0.731994C655.738839 169.910898 832.785409 205.752608 902.266848 216.564521l1.587987 0.192998z" p-id="2878"></path><path d="M675.691678 362.677341l-210.696298 227.688161-121.867016-106.759138a34.68872 34.68872 0 0 0-22.389819-8.203933 34.365722 34.365722 0 0 0-26.243788 12.058902c-12.304901 14.414884-10.664914 36.334707 3.872968 48.639607l149.640792 130.538946c6.099951 5.161958 14.530883 8.202934 22.974814 8.202934 1.054991 0 2.097983 0 3.157975-0.122999a34.512721 34.512721 0 0 0 23.795808-13.347892l232.834119-256.634928a33.932726 33.932726 0 0 0 6.685946-25.541793c-1.165991-9.146926-5.976952-17.226861-13.242893-22.852816-15.363876-11.712905-37.037701-8.782929-48.522608 6.334949z" p-id="2879"></path></svg>